<svg xmlns="http://www.w3.org/2000/svg" width="23" height="23" viewBox="0 0 23 23" fill="none">
  <path d="M16.5 5.5C18.8456 5.5 19.5184 5.5 20.3263 6.11994C20.5343 6.27954 20.7205 6.46572 20.8801 6.67372C21.5 7.48164 21.5 8.65442 21.5 11V15.5C21.5 18.3284 21.5 19.7426 20.6213 20.6213C19.7426 21.5 18.3284 21.5 15.5 21.5H7.5C4.67157 21.5 3.25736 21.5 2.37868 20.6213C1.5 19.7426 1.5 18.3284 1.5 15.5V11C1.5 8.65442 1.5 7.48164 2.11994 6.67372C2.27954 6.46572 2.46572 6.27954 2.67372 6.11994C3.48164 5.5 4.15442 5.5 6.5 5.5" stroke="#020202" stroke-width="1.5" stroke-linecap="round"/>
  <path d="M16.5 6.5L15.6142 4.28543C15.232 3.32996 14.8994 2.2461 13.9166 1.75955C13.3924 1.5 12.7616 1.5 11.5 1.5C10.2384 1.5 9.6076 1.5 9.08335 1.75955C8.1006 2.2461 7.76801 3.32996 7.38583 4.28543L6.5 6.5" stroke="#020202" stroke-width="1.5" stroke-linecap="round" stroke-linejoin="round"/>
  <path d="M15 13.5C15 15.433 13.433 17 11.5 17C9.567 17 8 15.433 8 13.5C8 11.567 9.567 10 11.5 10C13.433 10 15 11.567 15 13.5Z" stroke="#020202" stroke-width="1.5"/>
  <path d="M11.4998 5.5H11.5088" stroke="#020202" stroke-width="2" stroke-linecap="round" stroke-linejoin="round"/>
</svg>