<svg xmlns="http://www.w3.org/2000/svg" width="24" height="25" viewBox="0 0 24 25" fill="none">
  <path d="M4.644 5.44629H20.544C22.044 5.44629 22.8 6.15429 22.8 7.59429V17.6983C22.8 19.1263 22.044 19.8463 20.544 19.8463H4.644C3.144 19.8463 2.388 19.1263 2.388 17.6983V7.59429C2.388 6.15429 3.144 5.44629 4.644 5.44629ZM12.588 15.7663L20.676 9.13029C20.964 8.89029 21.192 8.33829 20.832 7.84629C20.484 7.35429 19.848 7.34229 19.428 7.64229L12.588 12.2743L5.76 7.64229C5.34 7.34229 4.704 7.35429 4.356 7.84629C3.996 8.33829 4.224 8.89029 4.512 9.13029L12.588 15.7663Z" fill="white"/>
</svg>