<svg xmlns="http://www.w3.org/2000/svg" width="25" height="24" viewBox="0 0 25 24" fill="none">
  <path fill-rule="evenodd" clip-rule="evenodd" d="M12.5023 3.43164C10.1082 3.43164 9.80844 3.44163 8.86816 3.48453C7.92965 3.52743 7.28849 3.6767 6.72785 3.89473C6.14018 4.11569 5.60716 4.46242 5.1664 4.9114C4.71814 5.35165 4.3712 5.8843 4.14973 6.47227C3.93287 7.03291 3.78302 7.67465 3.74012 8.61317C3.6978 9.55286 3.68723 9.85198 3.68723 12.2468C3.68723 14.6415 3.69722 14.9407 3.74012 15.8809C3.78302 16.8195 3.93229 17.4606 4.15031 18.0212C4.37128 18.6089 4.71801 19.1419 5.16699 19.5827C5.60725 20.0309 6.13989 20.3779 6.72785 20.5994C7.28849 20.8168 7.92965 20.9661 8.86816 21.009C9.80844 21.0519 10.1082 21.0619 12.5023 21.0619C14.8965 21.0619 15.1962 21.0519 16.1365 21.009C17.075 20.9661 17.7162 20.8168 18.2768 20.5988C18.8645 20.3778 19.3975 20.0311 19.8383 19.5821C20.2865 19.1419 20.6335 18.6092 20.855 18.0212C21.0724 17.4606 21.2217 16.8195 21.2646 15.8809C21.3075 14.9407 21.3175 14.6409 21.3175 12.2468C21.3175 9.85257 21.3075 9.55286 21.2646 8.61258C21.2217 7.67406 21.0724 7.03291 20.8544 6.47227C20.6331 5.88404 20.2861 5.35117 19.8377 4.91082C19.3974 4.46255 18.8648 4.11561 18.2768 3.89414C17.7162 3.67729 17.0744 3.52743 16.1359 3.48453C15.1962 3.44222 14.8971 3.43164 12.5023 3.43164ZM12.5023 5.02012C14.856 5.02012 15.1351 5.02894 16.0648 5.07125C16.924 5.11063 17.3906 5.25343 17.7015 5.37508C18.1129 5.53434 18.4067 5.72592 18.7152 6.03386C19.0238 6.34239 19.2148 6.63623 19.374 7.0476C19.4951 7.35848 19.6385 7.82509 19.6778 8.68427C19.7202 9.61398 19.729 9.89312 19.729 12.2468C19.729 14.6004 19.7202 14.8795 19.6778 15.8092C19.6385 16.6684 19.4957 17.135 19.374 17.4459C19.2329 17.8288 19.0078 18.1752 18.7152 18.4597C18.4308 18.7523 18.0844 18.9774 17.7015 19.1184C17.3906 19.2395 16.924 19.3829 16.0648 19.4223C15.1351 19.4646 14.8566 19.4734 12.5023 19.4734C10.1481 19.4734 9.86956 19.4646 8.93986 19.4223C8.08068 19.3829 7.61407 19.2401 7.30319 19.1184C6.92029 18.9774 6.57389 18.7522 6.28945 18.4597C5.99689 18.1752 5.77178 17.8288 5.63066 17.4459C5.5096 17.135 5.36621 16.6684 5.32684 15.8092C5.28452 14.8795 5.27571 14.6004 5.27571 12.2468C5.27571 9.89312 5.28452 9.61398 5.32684 8.68427C5.36621 7.82509 5.50902 7.35848 5.63066 7.0476C5.78992 6.63623 5.98151 6.34239 6.28945 6.03386C6.57385 5.74123 6.92026 5.51611 7.30319 5.37508C7.61407 5.25402 8.08068 5.11063 8.93986 5.07125C9.86956 5.02894 10.1487 5.02012 12.5023 5.02012Z" fill="white"/>
  <path fill-rule="evenodd" clip-rule="evenodd" d="M12.5023 15.1881C12.1161 15.1881 11.7336 15.112 11.3768 14.9642C11.0199 14.8164 10.6956 14.5997 10.4225 14.3266C10.1494 14.0535 9.93274 13.7292 9.78493 13.3724C9.63711 13.0155 9.56103 12.633 9.56103 12.2468C9.56103 11.8605 9.63711 11.478 9.78493 11.1212C9.93274 10.7643 10.1494 10.4401 10.4225 10.167C10.6956 9.89383 11.0199 9.67718 11.3768 9.52936C11.7336 9.38155 12.1161 9.30547 12.5023 9.30547C13.2824 9.30547 14.0306 9.61536 14.5822 10.167C15.1338 10.7186 15.4437 11.4667 15.4437 12.2468C15.4437 13.0269 15.1338 13.775 14.5822 14.3266C14.0306 14.8782 13.2824 15.1881 12.5023 15.1881ZM12.5023 7.71581C11.3007 7.71581 10.1482 8.19318 9.29846 9.0429C8.44874 9.89262 7.97137 11.0451 7.97137 12.2468C7.97137 13.4485 8.44874 14.6009 9.29846 15.4507C10.1482 16.3004 11.3007 16.7778 12.5023 16.7778C13.704 16.7778 14.8565 16.3004 15.7062 15.4507C16.5559 14.6009 17.0333 13.4485 17.0333 12.2468C17.0333 11.0451 16.5559 9.89262 15.7062 9.0429C14.8565 8.19318 13.704 7.71581 12.5023 7.71581ZM18.3515 7.63354C18.3515 7.91759 18.2386 8.19002 18.0378 8.39087C17.8369 8.59173 17.5645 8.70457 17.2804 8.70457C16.9964 8.70457 16.7239 8.59173 16.5231 8.39087C16.3222 8.19002 16.2094 7.91759 16.2094 7.63354C16.2094 7.34948 16.3222 7.07706 16.5231 6.8762C16.7239 6.67534 16.9964 6.5625 17.2804 6.5625C17.5645 6.5625 17.8369 6.67534 18.0378 6.8762C18.2386 7.07706 18.3515 7.34948 18.3515 7.63354Z" fill="white"/>
</svg>