<svg width="314" height="96" viewBox="0 0 314 96" fill="none" xmlns="http://www.w3.org/2000/svg">
<g clip-path="url(#clip0_1878_90)">
<path fill-rule="evenodd" clip-rule="evenodd" d="M57.0698 55.7041C58.422 54.0967 57.8043 51.7374 55.9965 50.6684C54.1942 49.6027 51.8957 50.2409 50.4277 51.7343C49.0732 53.1124 47.4686 54.2382 45.6876 55.0457C42.747 56.3792 39.4672 56.7809 36.2905 56.1968C33.1139 55.6128 30.1932 54.0709 27.9226 51.7794C25.652 49.4878 24.1406 46.5568 23.5924 43.3816C23.0442 40.2065 23.4854 36.94 24.8567 34.0228C26.228 31.1057 28.4633 28.6782 31.261 27.0678C34.0588 25.4575 37.2844 24.7417 40.5027 25.0172C42.4549 25.1842 44.3474 25.7111 46.0882 26.56C47.9679 27.4767 50.3443 27.3089 51.685 25.7036C53.0305 24.0926 52.8238 21.6644 51.0139 20.6022C48.0166 18.8431 44.6491 17.7646 41.1524 17.4653C36.3851 17.0573 31.6071 18.1175 27.4629 20.5029C23.3186 22.8883 20.0076 26.484 17.9763 30.8051C15.9451 35.1263 15.2915 39.9648 16.1035 44.6681C16.7425 48.3689 18.2649 51.8459 20.5235 54.8137L16.3214 58.3956C14.7151 59.7648 14.5263 62.1741 15.8996 63.7769C17.2729 65.3797 19.6883 65.5691 21.2946 64.1999L25.9441 60.2365C26.0041 60.1853 26.0606 60.1316 26.1135 60.0755C28.757 61.8462 31.7492 63.0692 34.9129 63.6509C39.6184 64.516 44.4767 63.9209 48.8325 61.9458C52.0254 60.4979 54.8357 58.3596 57.0698 55.7041Z" fill="url(#paint0_linear_1878_90)"/>
<path d="M33.4887 74.9838C33.4887 77.3654 31.558 79.2962 29.1764 79.2962H16.2687C7.31476 79.2962 0.0561523 72.0375 0.0561523 63.0836V20.2098C0.0561523 17.9379 1.8979 16.0962 4.16981 16.0962C6.44172 16.0962 8.28347 17.9379 8.28347 20.2098V62.1385C8.28347 66.8511 12.1038 70.6714 16.8164 70.6714H29.1764C31.558 70.6714 33.4887 72.6021 33.4887 74.9838Z" fill="url(#paint1_linear_1878_90)"/>
<path d="M64.5997 56.6963C63.8906 56.6963 63.3401 56.5004 62.9483 56.1085C62.5751 55.7166 62.3885 55.1755 62.3885 54.4851V39.1186C62.3885 38.3908 62.5751 37.8404 62.9483 37.4672C63.3215 37.094 63.8626 36.9074 64.5717 36.9074C65.2621 36.9074 65.7939 37.094 66.1671 37.4672C66.5403 37.8404 66.7269 38.3908 66.7269 39.1186V53.0296H74.2282C74.8253 53.0296 75.2825 53.1882 75.5997 53.5054C75.9356 53.8226 76.1036 54.2705 76.1036 54.8489C76.1036 55.4461 75.9356 55.9032 75.5997 56.2205C75.2825 56.5377 74.8253 56.6963 74.2282 56.6963H64.5997ZM86.0665 57.0042C84.667 57.0042 83.4261 56.8269 82.3438 56.4724C81.2802 56.0992 80.3845 55.558 79.6568 54.8489C78.929 54.1399 78.3785 53.2535 78.0053 52.1899C77.6508 51.1076 77.4735 49.8574 77.4735 48.4392V38.9226C77.4735 38.1949 77.6601 37.6444 78.0333 37.2712C78.4065 36.898 78.9477 36.7114 79.6568 36.7114C80.3472 36.7114 80.879 36.898 81.2522 37.2712C81.6254 37.6444 81.812 38.1949 81.812 38.9226V48.4672C81.812 50.072 82.1759 51.2849 82.9036 52.1059C83.6313 52.9083 84.6856 53.3095 86.0665 53.3095C87.4473 53.3095 88.4923 52.9083 89.2013 52.1059C89.9291 51.2849 90.293 50.072 90.293 48.4672V38.9226C90.293 38.1949 90.4796 37.6444 90.8528 37.2712C91.226 36.898 91.7578 36.7114 92.4482 36.7114C93.1386 36.7114 93.6611 36.898 94.0156 37.2712C94.3888 37.6444 94.5754 38.1949 94.5754 38.9226V48.4392C94.5754 50.3239 94.2489 51.91 93.5958 53.1975C92.9613 54.4664 92.0097 55.4181 90.7408 56.0525C89.4906 56.687 87.9325 57.0042 86.0665 57.0042ZM99.4549 56.9482C98.8951 56.9482 98.4286 56.7989 98.0554 56.5004C97.7008 56.1831 97.4956 55.8006 97.4396 55.3528C97.3836 54.8863 97.5329 54.4104 97.8874 53.9253L104.073 45.7242V47.6555L98.1393 39.7623C97.7848 39.2585 97.6262 38.7827 97.6635 38.3348C97.7195 37.8683 97.9248 37.4858 98.2793 37.1873C98.6525 36.87 99.1097 36.7114 99.6508 36.7114C100.117 36.7114 100.518 36.8234 100.854 37.0473C101.209 37.2712 101.563 37.6258 101.918 38.1109L106.536 44.4926H105.137L109.727 38.1109C110.082 37.6071 110.436 37.2526 110.791 37.0473C111.145 36.8234 111.556 36.7114 112.022 36.7114C112.582 36.7114 113.039 36.8607 113.394 37.1593C113.767 37.4578 113.972 37.8404 114.01 38.3069C114.066 38.7547 113.907 39.2399 113.534 39.7623L107.572 47.6555V45.7242L113.73 53.9253C114.103 54.4104 114.262 54.8863 114.206 55.3528C114.168 55.8006 113.963 56.1831 113.59 56.5004C113.235 56.7989 112.769 56.9482 112.19 56.9482C111.742 56.9482 111.341 56.8362 110.987 56.6123C110.651 56.3884 110.296 56.0245 109.923 55.5207L105.109 48.8871H106.536L101.722 55.5207C101.368 56.0245 101.013 56.3884 100.658 56.6123C100.304 56.8362 99.9027 56.9482 99.4549 56.9482ZM125.646 57.0042C124.247 57.0042 123.006 56.8269 121.923 56.4724C120.86 56.0992 119.964 55.558 119.236 54.8489C118.509 54.1399 117.958 53.2535 117.585 52.1899C117.23 51.1076 117.053 49.8574 117.053 48.4392V38.9226C117.053 38.1949 117.24 37.6444 117.613 37.2712C117.986 36.898 118.527 36.7114 119.236 36.7114C119.927 36.7114 120.459 36.898 120.832 37.2712C121.205 37.6444 121.392 38.1949 121.392 38.9226V48.4672C121.392 50.072 121.755 51.2849 122.483 52.1059C123.211 52.9083 124.265 53.3095 125.646 53.3095C127.027 53.3095 128.072 52.9083 128.781 52.1059C129.509 51.2849 129.873 50.072 129.873 48.4672V38.9226C129.873 38.1949 130.059 37.6444 130.432 37.2712C130.806 36.898 131.337 36.7114 132.028 36.7114C132.718 36.7114 133.241 36.898 133.595 37.2712C133.968 37.6444 134.155 38.1949 134.155 38.9226V48.4392C134.155 50.3239 133.828 51.91 133.175 53.1975C132.541 54.4664 131.589 55.4181 130.32 56.0525C129.07 56.687 127.512 57.0042 125.646 57.0042ZM140.177 56.9482C139.468 56.9482 138.927 56.7523 138.554 56.3604C138.181 55.9685 137.994 55.4181 137.994 54.709V39.1745C137.994 38.4468 138.181 37.8963 138.554 37.5231C138.946 37.1499 139.496 36.9633 140.205 36.9633H147.007C149.209 36.9633 150.907 37.4951 152.101 38.5588C153.295 39.6224 153.893 41.1059 153.893 43.0092C153.893 44.2407 153.622 45.3044 153.081 46.2C152.54 47.0957 151.756 47.7861 150.73 48.2713C149.722 48.7565 148.481 48.999 147.007 48.999L147.231 48.5232H148.379C149.162 48.5232 149.843 48.7191 150.422 49.111C151.019 49.4842 151.532 50.0627 151.961 50.8464L153.697 54.0652C153.958 54.5317 154.079 54.9889 154.061 55.4367C154.042 55.8846 153.874 56.2484 153.557 56.5283C153.239 56.8082 152.773 56.9482 152.157 56.9482C151.541 56.9482 151.038 56.8176 150.646 56.5563C150.273 56.2951 149.937 55.8939 149.638 55.3528L146.951 50.3985C146.671 49.8761 146.326 49.5215 145.915 49.3349C145.524 49.1483 145.038 49.055 144.46 49.055H142.333V54.709C142.333 55.4181 142.146 55.9685 141.773 56.3604C141.418 56.7523 140.887 56.9482 140.177 56.9482ZM142.333 45.9201H146.223C147.38 45.9201 148.248 45.6869 148.826 45.2204C149.424 44.7539 149.722 44.0541 149.722 43.1211C149.722 42.2068 149.424 41.5164 148.826 41.0499C148.248 40.5834 147.38 40.3501 146.223 40.3501H142.333V45.9201ZM164.095 56.9482C163.386 56.9482 162.845 56.7523 162.472 56.3604C162.098 55.9685 161.912 55.4087 161.912 54.681V46.5639L162.807 49.055L156.202 39.6784C155.941 39.2865 155.829 38.8667 155.866 38.4188C155.903 37.9523 156.09 37.5511 156.426 37.2152C156.762 36.8794 157.237 36.7114 157.853 36.7114C158.301 36.7114 158.702 36.8234 159.057 37.0473C159.43 37.2712 159.784 37.6258 160.12 38.1109L164.599 44.5766H163.703L168.181 38.1109C168.536 37.6071 168.881 37.2526 169.217 37.0473C169.572 36.8234 169.982 36.7114 170.449 36.7114C171.046 36.7114 171.512 36.87 171.848 37.1873C172.184 37.4858 172.361 37.8683 172.38 38.3348C172.399 38.7827 172.24 39.2492 171.904 39.7343L165.382 49.055L166.25 46.5639V54.681C166.25 56.1925 165.532 56.9482 164.095 56.9482ZM192.285 57.0042C190.158 57.0042 188.339 56.5843 186.827 55.7446C185.316 54.9049 184.149 53.7293 183.328 52.2179C182.526 50.6878 182.125 48.8871 182.125 46.8158C182.125 45.267 182.349 43.8769 182.797 42.6453C183.263 41.3951 183.935 40.3315 184.812 39.4544C185.689 38.5588 186.753 37.8683 188.003 37.3832C189.272 36.898 190.699 36.6554 192.285 36.6554C193.218 36.6554 194.161 36.7767 195.112 37.0193C196.083 37.2432 196.922 37.5698 197.631 37.999C198.098 38.2602 198.415 38.5868 198.583 38.9786C198.751 39.3705 198.798 39.7623 198.723 40.1542C198.667 40.5461 198.508 40.8819 198.247 41.1618C198.005 41.4417 197.697 41.619 197.323 41.6936C196.95 41.7683 196.53 41.6843 196.064 41.4417C195.504 41.1059 194.916 40.8633 194.301 40.714C193.685 40.5647 193.06 40.4901 192.425 40.4901C191.175 40.4901 190.121 40.742 189.262 41.2458C188.423 41.731 187.788 42.44 187.359 43.373C186.93 44.306 186.715 45.4536 186.715 46.8158C186.715 48.1593 186.93 49.3069 187.359 50.2586C187.788 51.2102 188.423 51.938 189.262 52.4418C190.121 52.927 191.175 53.1695 192.425 53.1695C193.022 53.1695 193.629 53.0949 194.245 52.9456C194.879 52.7963 195.485 52.5631 196.064 52.2459C196.549 52.0033 196.978 51.9193 197.351 51.994C197.743 52.0499 198.061 52.2179 198.303 52.4978C198.564 52.759 198.723 53.0762 198.779 53.4494C198.854 53.8226 198.816 54.1958 198.667 54.569C198.518 54.9422 198.238 55.2595 197.827 55.5207C197.137 55.9872 196.288 56.3511 195.28 56.6123C194.273 56.8736 193.274 57.0042 192.285 57.0042ZM204.03 56.9482C203.321 56.9482 202.779 56.7523 202.406 56.3604C202.033 55.9685 201.846 55.4181 201.846 54.709V38.9506C201.846 38.2415 202.033 37.6911 202.406 37.2992C202.779 36.9074 203.321 36.7114 204.03 36.7114C204.72 36.7114 205.252 36.9074 205.625 37.2992C205.998 37.6911 206.185 38.2415 206.185 38.9506V44.8845H215.366V38.9506C215.366 38.2415 215.552 37.6911 215.925 37.2992C216.299 36.9074 216.83 36.7114 217.521 36.7114C218.23 36.7114 218.771 36.9074 219.144 37.2992C219.517 37.6911 219.704 38.2415 219.704 38.9506V54.709C219.704 55.4181 219.517 55.9685 219.144 56.3604C218.771 56.7523 218.23 56.9482 217.521 56.9482C216.83 56.9482 216.299 56.7523 215.925 56.3604C215.552 55.9685 215.366 55.4181 215.366 54.709V48.4952H206.185V54.709C206.185 55.4181 205.998 55.9685 205.625 56.3604C205.271 56.7523 204.739 56.9482 204.03 56.9482ZM225.953 56.6963C225.226 56.6963 224.666 56.5004 224.274 56.1085C223.882 55.7166 223.686 55.1568 223.686 54.4291V39.2305C223.686 38.5028 223.882 37.943 224.274 37.5511C224.666 37.1593 225.226 36.9633 225.953 36.9633H235.722C236.282 36.9633 236.702 37.1126 236.982 37.4112C237.28 37.6911 237.429 38.1016 237.429 38.6427C237.429 39.2025 237.28 39.6317 236.982 39.9303C236.702 40.2102 236.282 40.3501 235.722 40.3501H227.829V44.9685H235.078C235.657 44.9685 236.086 45.1178 236.366 45.4163C236.664 45.6962 236.814 46.1161 236.814 46.6759C236.814 47.2357 236.664 47.6648 236.366 47.9634C236.086 48.2433 235.657 48.3833 235.078 48.3833H227.829V53.3095H235.722C236.282 53.3095 236.702 53.4588 236.982 53.7573C237.28 54.0372 237.429 54.4478 237.429 54.9889C237.429 55.5487 237.28 55.9779 236.982 56.2764C236.702 56.5563 236.282 56.6963 235.722 56.6963H225.953ZM250.206 57.0042C248.079 57.0042 246.259 56.5843 244.748 55.7446C243.236 54.9049 242.07 53.7293 241.249 52.2179C240.447 50.6878 240.046 48.8871 240.046 46.8158C240.046 45.267 240.269 43.8769 240.717 42.6453C241.184 41.3951 241.856 40.3315 242.733 39.4544C243.61 38.5588 244.673 37.8683 245.923 37.3832C247.192 36.898 248.62 36.6554 250.206 36.6554C251.139 36.6554 252.081 36.7767 253.033 37.0193C254.003 37.2432 254.843 37.5698 255.552 37.999C256.019 38.2602 256.336 38.5868 256.504 38.9786C256.672 39.3705 256.718 39.7623 256.644 40.1542C256.588 40.5461 256.429 40.8819 256.168 41.1618C255.925 41.4417 255.617 41.619 255.244 41.6936C254.871 41.7683 254.451 41.6843 253.985 41.4417C253.425 41.1059 252.837 40.8633 252.221 40.714C251.605 40.5647 250.98 40.4901 250.346 40.4901C249.096 40.4901 248.041 40.742 247.183 41.2458C246.343 41.731 245.709 42.44 245.28 43.373C244.851 44.306 244.636 45.4536 244.636 46.8158C244.636 48.1593 244.851 49.3069 245.28 50.2586C245.709 51.2102 246.343 51.938 247.183 52.4418C248.041 52.927 249.096 53.1695 250.346 53.1695C250.943 53.1695 251.549 53.0949 252.165 52.9456C252.8 52.7963 253.406 52.5631 253.985 52.2459C254.47 52.0033 254.899 51.9193 255.272 51.994C255.664 52.0499 255.981 52.2179 256.224 52.4978C256.485 52.759 256.644 53.0762 256.7 53.4494C256.774 53.8226 256.737 54.1958 256.588 54.569C256.438 54.9422 256.158 55.2595 255.748 55.5207C255.058 55.9872 254.209 56.3511 253.201 56.6123C252.193 56.8736 251.195 57.0042 250.206 57.0042ZM261.95 56.9482C261.241 56.9482 260.7 56.7523 260.327 56.3604C259.954 55.9685 259.767 55.4181 259.767 54.709V38.9226C259.767 38.2136 259.954 37.6724 260.327 37.2992C260.7 36.9074 261.241 36.7114 261.95 36.7114C262.641 36.7114 263.173 36.9074 263.546 37.2992C263.919 37.6724 264.106 38.2136 264.106 38.9226V45.5563H264.162L271.607 37.775C271.924 37.4392 272.251 37.1873 272.587 37.0193C272.941 36.8327 273.342 36.7394 273.79 36.7394C274.443 36.7394 274.91 36.9074 275.19 37.2432C275.488 37.5791 275.619 37.971 275.582 38.4188C275.544 38.8667 275.339 39.2865 274.966 39.6784L267.492 47.3196L267.52 45.4443L275.358 53.8133C275.787 54.2798 276.001 54.7556 276.001 55.2408C276.02 55.726 275.861 56.1365 275.526 56.4724C275.208 56.7896 274.732 56.9482 274.098 56.9482C273.557 56.9482 273.118 56.8362 272.783 56.6123C272.465 56.3884 272.111 56.0618 271.719 55.6327L264.162 47.6835H264.106V54.709C264.106 55.4181 263.919 55.9685 263.546 56.3604C263.191 56.7523 262.659 56.9482 261.95 56.9482ZM281.305 56.6963C280.577 56.6963 280.017 56.5004 279.625 56.1085C279.234 55.7166 279.038 55.1568 279.038 54.4291V39.2305C279.038 38.5028 279.234 37.943 279.625 37.5511C280.017 37.1593 280.577 36.9633 281.305 36.9633H291.073C291.633 36.9633 292.053 37.1126 292.333 37.4112C292.631 37.6911 292.781 38.1016 292.781 38.6427C292.781 39.2025 292.631 39.6317 292.333 39.9303C292.053 40.2102 291.633 40.3501 291.073 40.3501H283.18V44.9685H290.43C291.008 44.9685 291.437 45.1178 291.717 45.4163C292.016 45.6962 292.165 46.1161 292.165 46.6759C292.165 47.2357 292.016 47.6648 291.717 47.9634C291.437 48.2433 291.008 48.3833 290.43 48.3833H283.18V53.3095H291.073C291.633 53.3095 292.053 53.4588 292.333 53.7573C292.631 54.0372 292.781 54.4478 292.781 54.9889C292.781 55.5487 292.631 55.9779 292.333 56.2764C292.053 56.5563 291.633 56.6963 291.073 56.6963H281.305ZM298.168 56.9482C297.459 56.9482 296.918 56.7523 296.544 56.3604C296.171 55.9685 295.985 55.4181 295.985 54.709V39.1745C295.985 38.4468 296.171 37.8963 296.544 37.5231C296.936 37.1499 297.487 36.9633 298.196 36.9633H304.997C307.199 36.9633 308.897 37.4951 310.092 38.5588C311.286 39.6224 311.883 41.1059 311.883 43.0092C311.883 44.2407 311.612 45.3044 311.071 46.2C310.53 47.0957 309.746 47.7861 308.72 48.2713C307.712 48.7565 306.472 48.999 304.997 48.999L305.221 48.5232H306.369C307.153 48.5232 307.834 48.7191 308.412 49.111C309.009 49.4842 309.523 50.0627 309.952 50.8464L311.687 54.0652C311.948 54.5317 312.07 54.9889 312.051 55.4367C312.032 55.8846 311.864 56.2484 311.547 56.5283C311.23 56.8082 310.763 56.9482 310.148 56.9482C309.532 56.9482 309.028 56.8176 308.636 56.5563C308.263 56.2951 307.927 55.8939 307.629 55.3528L304.941 50.3985C304.662 49.8761 304.316 49.5215 303.906 49.3349C303.514 49.1483 303.029 49.055 302.45 49.055H300.323V54.709C300.323 55.4181 300.137 55.9685 299.763 56.3604C299.409 56.7523 298.877 56.9482 298.168 56.9482ZM300.323 45.9201H304.214C305.371 45.9201 306.238 45.6869 306.817 45.2204C307.414 44.7539 307.712 44.0541 307.712 43.1211C307.712 42.2068 307.414 41.5164 306.817 41.0499C306.238 40.5834 305.371 40.3501 304.214 40.3501H300.323V45.9201Z" fill="url(#paint2_linear_1878_90)"/>
</g>
<defs>
<linearGradient id="paint0_linear_1878_90" x1="47.3637" y1="13.6922" x2="29.2781" y2="68.57" gradientUnits="userSpaceOnUse">
<stop stop-color="#D5AF4A"/>
<stop offset="0.467814" stop-color="#F2E983"/>
<stop offset="0.741687" stop-color="#F2E983"/>
<stop offset="1" stop-color="#D5B14B"/>
</linearGradient>
<linearGradient id="paint1_linear_1878_90" x1="25.3395" y1="11.2138" x2="-8.96179" y2="72.5931" gradientUnits="userSpaceOnUse">
<stop stop-color="#D5AF4A"/>
<stop offset="0.467814" stop-color="#F2E983"/>
<stop offset="0.741687" stop-color="#F2E983"/>
<stop offset="1" stop-color="#D5B14B"/>
</linearGradient>
<linearGradient id="paint2_linear_1878_90" x1="252.031" y1="25.7607" x2="249.893" y2="74.0971" gradientUnits="userSpaceOnUse">
<stop stop-color="#D5AF4A"/>
<stop offset="0.467814" stop-color="#F2E983"/>
<stop offset="0.741687" stop-color="#F2E983"/>
<stop offset="1" stop-color="#D5B14B"/>
</linearGradient>
<clipPath id="clip0_1878_90">
<rect width="313.888" height="94.8" fill="white" transform="translate(0.0561523 0.296387)"/>
</clipPath>
</defs>
</svg>
