<svg xmlns="http://www.w3.org/2000/svg" width="64" height="64" viewBox="0 0 64 64" fill="none">
  <path d="M43.1871 6.09558C43.618 4.07687 45.6196 2.761 47.5449 3.50486C51.9449 5.20484 55.7563 8.20548 58.4412 12.1461C61.8311 17.1213 63.1631 23.2104 62.1592 29.1419C61.1554 35.0734 57.8932 40.3888 53.0538 43.9785C49.222 46.8208 44.6359 48.4071 39.9217 48.573C37.8569 48.6457 36.3968 46.744 36.6544 44.6941C36.9118 42.6456 38.7976 41.239 40.8497 41.0118C43.6287 40.7041 46.3004 39.6676 48.5793 37.9771C51.8673 35.5383 54.0836 31.9269 54.7656 27.897C55.4477 23.867 54.5427 19.7301 52.2396 16.3499C50.6444 14.0086 48.4639 12.1558 45.9426 10.9551C44.0767 10.0666 42.7557 8.11685 43.1871 6.09558Z" fill="#2B2A2A"/>
  <path fill-rule="evenodd" clip-rule="evenodd" d="M57.0136 40.2544C58.3659 38.647 57.7482 36.2877 55.9404 35.2187C54.1381 34.153 51.8396 34.7912 50.3716 36.2846C49.0171 37.6627 47.4124 38.7885 45.6315 39.596C42.6909 40.9294 39.4111 41.3312 36.2344 40.7471C33.0578 40.1631 30.1371 38.6212 27.8665 36.3297C25.5959 34.0381 24.0845 31.1071 23.5363 27.9319C22.988 24.7568 23.4293 21.4903 24.8006 18.5731C26.1719 15.656 28.4071 13.2285 31.2049 11.6181C34.0027 10.0078 37.2283 9.29203 40.4466 9.56747C42.3988 9.73453 44.2913 10.2614 46.0321 11.1103C47.9118 12.027 50.2882 11.8592 51.6289 10.2539C52.9744 8.64288 52.7677 6.21471 50.9578 5.15248C47.9604 3.39342 44.5929 2.31485 41.0962 2.01559C36.329 1.60761 31.551 2.66781 27.4067 5.05318C23.2625 7.43855 19.9515 11.0343 17.9202 15.3554C15.889 19.6766 15.2353 24.5151 16.0474 29.2184C16.6864 32.9192 18.2088 36.3962 20.4673 39.364L16.2653 42.9459C14.659 44.3151 14.4702 46.7244 15.8435 48.3272C17.2168 49.93 19.6322 50.1194 21.2384 48.7502L25.888 44.7868C25.948 44.7356 26.0045 44.6819 26.0574 44.6258C28.7008 46.3965 31.6931 47.6195 34.8568 48.2012C39.5623 49.0663 44.4206 48.4712 48.7764 46.4961C51.9693 45.0482 54.7796 42.9099 57.0136 40.2544Z" fill="url(#paint0_linear_1878_789)"/>
  <path d="M33.4327 59.5341C33.4327 61.9157 31.502 63.8465 29.1203 63.8465H16.2127C7.2587 63.8465 9.15527e-05 56.5878 9.15527e-05 47.6339V4.76014C9.15527e-05 2.48823 1.84184 0.646484 4.11375 0.646484C6.38566 0.646484 8.22741 2.48823 8.22741 4.76014V46.6888C8.22741 51.4014 12.0477 55.2217 16.7603 55.2217H29.1203C31.502 55.2217 33.4327 57.1524 33.4327 59.5341Z" fill="url(#paint1_linear_1878_789)"/>
  <defs>
    <linearGradient id="paint0_linear_1878_789" x1="47.3076" y1="-1.75748" x2="29.222" y2="53.1203" gradientUnits="userSpaceOnUse">
      <stop stop-color="#D5AF4A"/>
      <stop offset="0.467814" stop-color="#F2E983"/>
      <stop offset="0.741687" stop-color="#F2E983"/>
      <stop offset="1" stop-color="#D5B14B"/>
    </linearGradient>
    <linearGradient id="paint1_linear_1878_789" x1="25.2835" y1="-4.23589" x2="-9.01785" y2="57.1434" gradientUnits="userSpaceOnUse">
      <stop stop-color="#D5AF4A"/>
      <stop offset="0.467814" stop-color="#F2E983"/>
      <stop offset="0.741687" stop-color="#F2E983"/>
      <stop offset="1" stop-color="#D5B14B"/>
    </linearGradient>
  </defs>
</svg>