<svg xmlns="http://www.w3.org/2000/svg" width="14" height="20" viewBox="0 0 14 20" fill="none">
  <g clip-path="url(#clip0_1848_813)">
    <path d="M6.13594 19.1715C4.23281 16.7891 0 11.0148 0 7.77149C0 3.83641 3.13396 0.646484 7 0.646484C10.8646 0.646484 14 3.83641 14 7.77149C14 11.0148 9.73438 16.7891 7.86406 19.1715C7.41562 19.7393 6.58437 19.7393 6.13594 19.1715ZM7 10.1465C8.28698 10.1465 9.33333 9.08145 9.33333 7.77149C9.33333 6.46152 8.28698 5.39648 7 5.39648C5.71302 5.39648 4.66667 6.46152 4.66667 7.77149C4.66667 9.08145 5.71302 10.1465 7 10.1465Z" fill="white"/>
  </g>
  <defs>
    <clipPath id="clip0_1848_813">
      <rect width="14" height="19" fill="white" transform="translate(0 0.646484)"/>
    </clipPath>
  </defs>
</svg>