<svg width="45" height="68" viewBox="0 0 45 68" fill="none" xmlns="http://www.w3.org/2000/svg">
<g clip-path="url(#clip0_1505_726)">
<path d="M30.2492 15.6834C30.551 14.2694 31.9529 13.3478 33.3015 13.8688C36.3833 15.0595 39.053 17.1612 40.9335 19.9213C43.3078 23.4061 44.2408 27.6709 43.5377 31.8255C42.8346 35.9801 40.5497 39.7031 37.1601 42.2174C34.4762 44.2082 31.2639 45.3193 27.962 45.4355C26.5158 45.4864 25.4931 44.1544 25.6735 42.7186C25.8538 41.2838 27.1747 40.2986 28.612 40.1395C30.5585 39.9239 32.4298 39.1979 34.026 38.0139C36.329 36.3057 37.8813 33.7762 38.3591 30.9535C38.8368 28.1309 38.2029 25.2333 36.5898 22.8657C35.4725 21.2258 33.9452 19.9281 32.1792 19.0871C30.8723 18.4648 29.947 17.0991 30.2492 15.6834Z" fill="#564105"/>
<path fill-rule="evenodd" clip-rule="evenodd" d="M39.9336 39.6088C40.8807 38.4829 40.4481 36.8304 39.1818 36.0817C37.9194 35.3352 36.3095 35.7822 35.2813 36.8283C34.3326 37.7935 33.2087 38.582 31.9612 39.1477C29.9016 40.0816 27.6043 40.363 25.3793 39.9539C23.1543 39.5448 21.1087 38.4649 19.5183 36.8599C17.9279 35.2548 16.8693 33.2018 16.4853 30.9779C16.1013 28.7539 16.4104 26.466 17.3708 24.4228C18.3313 22.3795 19.8969 20.6793 21.8566 19.5513C23.8162 18.4234 26.0755 17.9221 28.3297 18.115C29.697 18.232 31.0225 18.6011 32.2419 19.1957C33.5584 19.8377 35.2229 19.7202 36.162 18.5958C37.1044 17.4674 36.9596 15.7667 35.6919 15.0227C33.5925 13.7906 31.2338 13.0351 28.7847 12.8255C25.4456 12.5398 22.099 13.2823 19.1962 14.9531C16.2935 16.6239 13.9744 19.1424 12.5517 22.169C11.129 25.1956 10.6711 28.5847 11.2399 31.8789C11.6875 34.4711 12.7538 36.9065 14.3357 38.9851L11.3925 41.494C10.2675 42.453 10.1352 44.1406 11.0971 45.2632C12.0589 46.3858 13.7508 46.5185 14.8758 45.5594L18.1325 42.7834C18.1745 42.7476 18.2141 42.7099 18.2511 42.6706C20.1027 43.9109 22.1985 44.7675 24.4144 45.1749C27.7103 45.7809 31.1131 45.3641 34.164 43.9806C36.4004 42.9665 38.3688 41.4688 39.9336 39.6088Z" fill="url(#paint0_linear_1505_726)"/>
<path d="M23.417 53.1128C23.417 54.781 22.0647 56.1333 20.3965 56.1333H11.3557C5.08418 56.1333 9.15527e-05 51.0492 9.15527e-05 44.7777V14.748C9.15527e-05 13.1567 1.29009 11.8667 2.88139 11.8667C4.47268 11.8667 5.76268 13.1567 5.76268 14.748V44.1157C5.76268 47.4165 8.43853 50.0924 11.7393 50.0924H20.3965C22.0647 50.0924 23.417 51.4447 23.417 53.1128Z" fill="url(#paint1_linear_1505_726)"/>
</g>
<defs>
<linearGradient id="paint0_linear_1505_726" x1="33.1352" y1="10.1828" x2="20.4677" y2="48.6204" gradientUnits="userSpaceOnUse">
<stop stop-color="#D5AF4A"/>
<stop offset="0.467814" stop-color="#F2E983"/>
<stop offset="0.741687" stop-color="#F2E983"/>
<stop offset="1" stop-color="#D5B14B"/>
</linearGradient>
<linearGradient id="paint1_linear_1505_726" x1="17.7091" y1="8.44695" x2="-6.31627" y2="51.4384" gradientUnits="userSpaceOnUse">
<stop stop-color="#D5AF4A"/>
<stop offset="0.467814" stop-color="#F2E983"/>
<stop offset="0.741687" stop-color="#F2E983"/>
<stop offset="1" stop-color="#D5B14B"/>
</linearGradient>
<clipPath id="clip0_1505_726">
<rect width="44.2667" height="66.4" fill="white" transform="translate(0 0.799988)"/>
</clipPath>
</defs>
</svg>
