<svg width="24" height="25" viewBox="0 0 24 25" fill="none" xmlns="http://www.w3.org/2000/svg">
<g clip-path="url(#clip0_1505_1026)">
<path d="M9.23076 0.673523C8.04127 0.673402 6.86341 0.907584 5.76443 1.3627C4.66545 1.81781 3.66687 2.48494 2.82574 3.326C1.9846 4.16705 1.31736 5.16555 0.862136 6.26449C0.40691 7.36342 0.172607 8.54126 0.172607 9.73075C0.172486 10.9203 0.4067 12.0983 0.861871 13.1973C1.31704 14.2963 1.98426 15.295 2.82541 16.1361C3.66656 16.9773 4.66517 17.6445 5.76421 18.0996C6.86325 18.5548 8.04119 18.789 9.23076 18.7889C11.3446 18.7889 13.2858 18.0403 14.8274 16.8274L15.6351 17.6351C15.4692 17.9573 15.4105 18.3241 15.4674 18.682C15.5244 19.0399 15.694 19.3703 15.9517 19.6252L20.1923 23.8944C20.8505 24.5535 21.9277 24.5535 22.5868 23.8944L23.3945 23.0868C23.7107 22.7685 23.8882 22.3381 23.8882 21.8895C23.8882 21.4409 23.7107 21.0105 23.3945 20.6923L19.1252 16.4517C18.8686 16.1958 18.5362 16.0295 18.1774 15.9776C17.8187 15.9257 17.4528 15.991 17.1341 16.1637L16.3265 15.356C17.3837 14.0218 18.0436 12.4167 18.2304 10.7248C18.4172 9.03276 18.1234 7.32238 17.3827 5.7897C16.642 4.25703 15.4844 2.96413 14.0425 2.05923C12.6007 1.15433 10.933 0.674071 9.23076 0.673523ZM9.23076 2.34614C11.1893 2.34614 13.0676 3.12416 14.4525 4.50904C15.8374 5.89393 16.6154 7.77223 16.6154 9.73075C16.6154 11.6893 15.8374 13.5676 14.4525 14.9525C13.0676 16.3373 11.1893 17.1154 9.23076 17.1154C7.27224 17.1154 5.39393 16.3373 4.00905 14.9525C2.62417 13.5676 1.84615 11.6893 1.84615 9.73075C1.84615 7.77223 2.62417 5.89393 4.00905 4.50904C5.39393 3.12416 7.27224 2.34614 9.23076 2.34614ZM4.55722 7.39445C4.06488 8.1919 3.80527 9.1111 3.80768 10.0483C3.80659 10.7116 3.93642 11.3685 4.18974 11.9815C4.44305 12.5945 4.81486 13.1514 5.28386 13.6204C5.75286 14.0894 6.30981 14.4612 6.92279 14.7145C7.53578 14.9679 8.19273 15.0977 8.85599 15.0966C9.89868 15.0945 10.9156 14.7722 11.7692 14.1735C11.5391 14.1948 11.308 14.2041 11.0769 14.2012C10.2202 14.2034 9.37149 14.0363 8.57956 13.7095C7.78763 13.3827 7.06807 12.9026 6.46224 12.2969C5.8564 11.6911 5.37623 10.9716 5.04931 10.1797C4.72238 9.38784 4.55515 8.53916 4.55722 7.68245C4.55722 7.58645 4.55261 7.49045 4.55722 7.39445Z" fill="#020202"/>
</g>
<defs>
<clipPath id="clip0_1505_1026">
<rect width="24" height="24" fill="white" transform="translate(0 0.5)"/>
</clipPath>
</defs>
</svg>
