<svg xmlns="http://www.w3.org/2000/svg" width="24" height="25" viewBox="0 0 24 25" fill="none">
  <path d="M3.24375 6.0418L5.73984 3.54805C5.91592 3.3712 6.1252 3.23088 6.35567 3.13515C6.58614 3.03942 6.83325 2.99017 7.08281 2.99023C7.5914 2.99023 8.06953 3.18945 8.42812 3.54805L11.1141 6.23398C11.2909 6.41006 11.4312 6.61935 11.527 6.84981C11.6227 7.08028 11.6719 7.32739 11.6719 7.57695C11.6719 8.08555 11.4727 8.56367 11.1141 8.92227L9.15 10.8863C9.60974 11.8997 10.2489 12.8215 11.0367 13.6074C11.8225 14.3971 12.7443 15.0386 13.7578 15.5012L15.7219 13.5371C15.898 13.3603 16.1072 13.2199 16.3377 13.1242C16.5682 13.0285 16.8153 12.9792 17.0648 12.9793C17.5734 12.9793 18.0516 13.1785 18.4102 13.5371L21.0984 16.2207C21.2755 16.3971 21.4159 16.6068 21.5117 16.8377C21.6074 17.0685 21.6565 17.3161 21.6562 17.566C21.6562 18.0746 21.457 18.5527 21.0984 18.9113L18.607 21.4027C18.0352 21.977 17.2453 22.3027 16.4344 22.3027C16.2633 22.3027 16.0992 22.2887 15.9375 22.2605C12.7781 21.7402 9.64453 20.0598 7.11562 17.5332C4.58906 15.009 2.91094 11.8777 2.38359 8.70898C2.22422 7.74102 2.54531 6.74492 3.24375 6.0418Z" fill="white"/>
</svg>