<svg xmlns="http://www.w3.org/2000/svg" width="25" height="24" viewBox="0 0 25 24" fill="none">
  <path d="M20.2868 8.25069C20.2987 8.42338 20.2987 8.59608 20.2987 8.77036C20.2987 14.0809 16.256 20.2055 8.86358 20.2055V20.2023C6.67985 20.2055 4.54147 19.58 2.70312 18.4006C3.02066 18.4388 3.33978 18.4579 3.6597 18.4587C5.4694 18.4603 7.22737 17.8531 8.65109 16.7349C6.93132 16.7023 5.42324 15.581 4.89641 13.944C5.49885 14.0602 6.11959 14.0363 6.71088 13.8748C4.83593 13.4959 3.48701 11.8486 3.48701 9.93544C3.48701 9.91794 3.48701 9.90122 3.48701 9.88451C4.04568 10.1957 4.67119 10.3684 5.31103 10.3875C3.5451 9.20727 3.00076 6.858 4.06716 5.02125C6.10765 7.53206 9.11824 9.05845 12.3501 9.22C12.0262 7.82413 12.4687 6.36141 13.5128 5.38016C15.1315 3.85855 17.6773 3.93654 19.1989 5.55445C20.099 5.37698 20.9617 5.04671 21.7511 4.57877C21.4511 5.50909 20.8232 6.29934 19.9844 6.8015C20.781 6.70759 21.5593 6.49431 22.2923 6.16882C21.7527 6.97738 21.0731 7.68168 20.2868 8.25069Z" fill="white"/>
</svg>