<svg width="55" height="56" viewBox="0 0 55 56" fill="none" xmlns="http://www.w3.org/2000/svg">
<rect y="0.5" width="55" height="55" rx="27.5" fill="url(#paint0_linear_1746_837)"/>
<path d="M10.8188 43.9994L13.1768 35.4368C11.719 32.9236 10.9543 30.0773 10.9622 27.1677C10.9622 18.0501 18.4185 10.6372 27.5716 10.6372C32.0167 10.6372 36.191 12.3576 39.3216 15.4814C42.4603 18.6051 44.1889 22.7595 44.181 27.1756C44.181 36.2931 36.7247 43.706 27.5636 43.706H27.5557C24.7755 43.706 22.0431 43.0083 19.6135 41.6922L10.8188 43.9994ZM20.0357 38.7033L20.5375 39.0046C22.6565 40.2572 25.0862 40.9153 27.5636 40.9232H27.5716C35.1793 40.9232 41.3769 34.7629 41.3769 27.1835C41.3769 23.5127 39.943 20.0639 37.3381 17.4634C34.7332 14.863 31.2599 13.4359 27.5716 13.4359C19.964 13.428 13.7663 19.5882 13.7663 27.1677C13.7663 29.7602 14.4912 32.2893 15.8773 34.4775L16.2039 35.0008L14.8099 40.0669L20.0357 38.7033Z" fill="white"/>
<path d="M11.4004 43.4205L13.6787 35.1513C12.2687 32.7332 11.5278 29.982 11.5278 27.1754C11.5358 18.375 18.7292 11.2158 27.5716 11.2158C31.8654 11.2158 35.8883 12.8808 38.9154 15.8935C41.9425 18.9062 43.6074 22.9179 43.6074 27.1834C43.6074 35.9837 36.4061 43.143 27.5716 43.143H27.5637C24.8791 43.143 22.2423 42.4691 19.9002 41.2005L11.4004 43.4205Z" fill="url(#paint1_linear_1746_837)"/>
<path d="M10.8188 43.9994L13.1768 35.4368C11.719 32.9236 10.9543 30.0773 10.9622 27.1677C10.9622 18.0501 18.4185 10.6372 27.5716 10.6372C32.0167 10.6372 36.191 12.3576 39.3216 15.4814C42.4603 18.6051 44.1889 22.7595 44.181 27.1756C44.181 36.2931 36.7247 43.706 27.5636 43.706H27.5557C24.7755 43.706 22.0431 43.0083 19.6135 41.6922L10.8188 43.9994ZM20.0357 38.7033L20.5375 39.0046C22.6565 40.2572 25.0862 40.9153 27.5636 40.9232H27.5716C35.1793 40.9232 41.3769 34.7629 41.3769 27.1835C41.3769 23.5127 39.943 20.0639 37.3381 17.4634C34.7332 14.863 31.2599 13.4359 27.5716 13.4359C19.964 13.428 13.7663 19.5882 13.7663 27.1677C13.7663 29.7602 14.4912 32.2893 15.8773 34.4775L16.2039 35.0008L14.8099 40.0669L20.0357 38.7033Z" fill="url(#paint2_linear_1746_837)"/>
<path fill-rule="evenodd" clip-rule="evenodd" d="M23.421 20.2542C23.1103 19.5644 22.7837 19.5486 22.489 19.5406C22.25 19.5327 21.9712 19.5327 21.6924 19.5327C21.4136 19.5327 20.9675 19.6358 20.5851 20.0481C20.2027 20.4603 19.1353 21.4593 19.1353 23.4969C19.1353 25.5265 20.6249 27.4927 20.832 27.7702C21.0392 28.0477 23.7078 32.3527 27.9219 34.0097C31.427 35.3893 32.1439 35.1118 32.9007 35.0404C33.6575 34.9691 35.3543 34.0414 35.7048 33.0742C36.0473 32.107 36.0473 31.2824 35.9438 31.108C35.8402 30.9336 35.5614 30.8305 35.1472 30.6244C34.7329 30.4182 32.6936 29.4193 32.3112 29.2766C31.9288 29.1418 31.65 29.0704 31.3792 29.4827C31.1004 29.895 30.3038 30.8226 30.0648 31.1001C29.8258 31.3776 29.5788 31.4093 29.1646 31.2031C28.7504 30.997 27.4121 30.5609 25.8268 29.1497C24.592 28.0556 23.7556 26.6999 23.5166 26.2876C23.2776 25.8753 23.4927 25.6533 23.6998 25.4472C23.8831 25.2649 24.1141 24.9636 24.3212 24.7257C24.5283 24.4879 24.6 24.3135 24.7354 24.036C24.8709 23.7585 24.8071 23.5206 24.7036 23.3145C24.6 23.1163 23.7875 21.0708 23.421 20.2542Z" fill="white"/>
<defs>
<linearGradient id="paint0_linear_1746_837" x1="27.4986" y1="55.4973" x2="27.4986" y2="0.498076" gradientUnits="userSpaceOnUse">
<stop stop-color="#20B038"/>
<stop offset="1" stop-color="#60D66A"/>
</linearGradient>
<linearGradient id="paint1_linear_1746_837" x1="27.5031" y1="43.4189" x2="27.5031" y2="11.2147" gradientUnits="userSpaceOnUse">
<stop stop-color="#20B038"/>
<stop offset="1" stop-color="#60D66A"/>
</linearGradient>
<linearGradient id="paint2_linear_1746_837" x1="27.5032" y1="43.9962" x2="27.5032" y2="10.6372" gradientUnits="userSpaceOnUse">
<stop stop-color="#F9F9F9"/>
<stop offset="1" stop-color="white"/>
</linearGradient>
</defs>
</svg>
